<svg width="297" height="57" viewBox="0 0 297 57" fill="none" xmlns="http://www.w3.org/2000/svg">
<g clip-path="url(#clip0_1202_18)">
<path d="M27.4835 55.2075C42.6622 55.2075 54.9669 42.8489 54.9669 27.6038C54.9669 12.3586 42.6622 0 27.4835 0C12.3048 0 0 12.3586 0 27.6038C0 42.8489 12.3048 55.2075 27.4835 55.2075Z" fill="#F77D27"/>
<path fill-rule="evenodd" clip-rule="evenodd" d="M40.6243 33.4413C38.393 38.5005 33.3499 42.0299 27.4861 42.0299C22.1335 42.0299 17.4648 39.0889 14.9943 34.7282H21.2801V35.4405L24.4719 33.6596L21.2801 31.7005V32.7691H14.0717C13.4593 31.1657 13.1238 29.4245 13.1238 27.6045C13.1238 19.6378 19.5541 13.1794 27.4861 13.1794C32.7655 13.1794 37.3796 16.0404 39.8754 20.303H34.4013V19.2345L31.2098 21.1934L34.4013 22.9742V22.2619H40.8313C40.931 22.5131 41.024 22.7679 41.1099 23.0257C42.9123 24.9333 46.3456 25.2098 48.9089 24.0806C50.1538 22.029 52.4025 20.6591 54.9696 20.6591C58.8868 20.6591 62.0622 23.8484 62.0622 27.7827C62.0622 31.7169 58.8868 34.9062 54.9696 34.9062C52.586 34.9062 50.477 33.7252 49.1912 31.9141C45.5721 30.9882 43.267 30.9882 40.6243 33.4413Z" fill="white"/>
<path d="M77.95 39.1998C75.7223 39.1998 73.7027 38.719 71.8916 37.7572C70.1011 36.7743 68.6853 35.4255 67.6443 33.7109C66.6243 31.9753 66.1141 30.0202 66.1141 27.8454C66.1141 25.6709 66.6243 23.7261 67.6443 22.0115C68.6853 20.2758 70.1011 18.9272 71.8916 17.9653C73.7027 16.9825 75.7327 16.4911 77.9812 16.4911C79.8758 16.4911 81.5829 16.8257 83.1027 17.4948C84.6433 18.1639 85.9342 19.1258 86.9752 20.3805L83.7273 23.3917C82.2491 21.6769 80.417 20.8196 78.2309 20.8196C76.8778 20.8196 75.6703 21.1229 74.6085 21.7292C73.5466 22.3147 72.7139 23.1407 72.1101 24.2071C71.5272 25.2736 71.2357 26.4864 71.2357 27.8454C71.2357 29.2047 71.5272 30.4175 72.1101 31.4839C72.7139 32.5504 73.5466 33.3868 74.6085 33.9933C75.6703 34.5787 76.8778 34.8715 78.2309 34.8715C80.417 34.8715 82.2491 34.0037 83.7273 32.2681L86.9752 35.2792C85.9342 36.5547 84.6433 37.5271 83.1027 38.1963C81.562 38.8653 79.8446 39.1998 77.95 39.1998Z" fill="#F77E23"/>
<path d="M97.151 39.0745C95.3813 39.0745 93.7886 38.7085 92.3729 37.9766C90.9779 37.2239 89.8851 36.1887 89.0938 34.8715C88.3026 33.554 87.9071 32.0589 87.9071 30.3861C87.9071 28.7134 88.3026 27.2183 89.0938 25.9008C89.8851 24.5835 90.9779 23.5589 92.3729 22.827C93.7886 22.0742 95.3813 21.6978 97.151 21.6978C98.9207 21.6978 100.503 22.0742 101.898 22.827C103.293 23.5589 104.386 24.5835 105.177 25.9008C105.968 27.2183 106.363 28.7134 106.363 30.3861C106.363 32.0589 105.968 33.554 105.177 34.8715C104.386 36.1887 103.293 37.2239 101.898 37.9766C100.503 38.7085 98.9207 39.0745 97.151 39.0745ZM97.151 35.0596C98.4001 35.0596 99.4203 34.6414 100.211 33.805C101.023 32.9477 101.429 31.8081 101.429 30.3861C101.429 28.9642 101.023 27.835 100.211 26.9986C99.4203 26.1413 98.4001 25.7127 97.151 25.7127C95.9017 25.7127 94.8713 26.1413 94.0593 26.9986C93.2472 27.835 92.8413 28.9642 92.8413 30.3861C92.8413 31.8081 93.2472 32.9477 94.0593 33.805C94.8713 34.6414 95.9017 35.0596 97.151 35.0596Z" fill="#F77E23"/>
<path d="M119.519 21.6978C121.601 21.6978 123.277 22.3252 124.547 23.5798C125.838 24.8343 126.484 26.6954 126.484 29.1629V38.8235H121.612V29.9157C121.612 28.5773 121.32 27.5842 120.738 26.9359C120.154 26.2667 119.311 25.9322 118.208 25.9322C116.98 25.9322 116.001 26.319 115.272 27.0927C114.544 27.8455 114.179 28.9746 114.179 30.4802V38.8235H109.308V21.9488H113.961V23.9248C114.606 23.2138 115.408 22.6702 116.365 22.2938C117.323 21.8966 118.374 21.6978 119.519 21.6978Z" fill="#F77E23"/>
<path d="M141.424 38.008C140.945 38.3635 140.352 38.6354 139.644 38.8235C138.957 38.9908 138.228 39.0745 137.458 39.0745C135.459 39.0745 133.908 38.5622 132.805 37.5375C131.722 36.5129 131.181 35.0073 131.181 33.0209V26.0891H128.589V22.3252H131.181V18.2162H136.052V22.3252H140.237V26.0891H136.052V32.9582C136.052 33.6691 136.229 34.2232 136.583 34.6205C136.958 34.9969 137.478 35.1852 138.145 35.1852C138.915 35.1852 139.571 34.976 140.112 34.5578L141.424 38.008Z" fill="#F77E23"/>
<path d="M159.785 30.4488C159.785 30.5115 159.754 30.9508 159.692 31.7663H146.982C147.211 32.8117 147.752 33.6378 148.605 34.2441C149.459 34.8506 150.521 35.1538 151.791 35.1538C152.665 35.1538 153.435 35.0282 154.102 34.7774C154.789 34.5055 155.424 34.0873 156.007 33.5227L158.599 36.3457C157.017 38.1649 154.706 39.0745 151.666 39.0745C149.771 39.0745 148.095 38.7085 146.638 37.9766C145.181 37.2239 144.056 36.1887 143.265 34.8715C142.474 33.554 142.079 32.0589 142.079 30.3861C142.079 28.7343 142.464 27.2496 143.234 25.9322C144.025 24.594 145.097 23.5589 146.451 22.827C147.825 22.0742 149.355 21.6978 151.041 21.6978C152.686 21.6978 154.175 22.0533 155.507 22.7643C156.839 23.4753 157.88 24.4997 158.63 25.8381C159.4 27.1554 159.785 28.6925 159.785 30.4488ZM151.073 25.399C149.969 25.399 149.043 25.7127 148.293 26.3399C147.544 26.9673 147.086 27.8246 146.919 28.9119H155.195C155.028 27.8455 154.57 26.9986 153.821 26.3712C153.071 25.7232 152.155 25.399 151.073 25.399Z" fill="#F77E23"/>
<path d="M172.929 21.6978C175.01 21.6978 176.686 22.3252 177.956 23.5798C179.247 24.8343 179.893 26.6954 179.893 29.1629V38.8235H175.021V29.9157C175.021 28.5773 174.729 27.5842 174.146 26.9359C173.564 26.2667 172.72 25.9322 171.617 25.9322C170.389 25.9322 169.41 26.319 168.681 27.0927C167.953 27.8455 167.588 28.9746 167.588 30.4802V38.8235H162.717V21.9488H167.37V23.9248C168.015 23.2138 168.817 22.6702 169.774 22.2938C170.732 21.8966 171.783 21.6978 172.929 21.6978Z" fill="#F77E23"/>
<path d="M194.832 38.008C194.353 38.3635 193.761 38.6354 193.052 38.8235C192.365 38.9908 191.637 39.0745 190.867 39.0745C188.868 39.0745 187.317 38.5622 186.213 37.5375C185.131 36.5129 184.59 35.0073 184.59 33.0209V26.0891H181.998V22.3252H184.59V18.2162H189.461V22.3252H193.646V26.0891H189.461V32.9582C189.461 33.6691 189.639 34.2232 189.993 34.6205C190.368 34.9969 190.888 35.1852 191.554 35.1852C192.324 35.1852 192.98 34.976 193.521 34.5578L194.832 38.008Z" fill="#F77E23"/>
<path d="M197.255 21.9488H202.126V38.8235H197.255V21.9488ZM199.692 19.5962C198.795 19.5962 198.067 19.335 197.505 18.8122C196.943 18.2894 196.661 17.6412 196.661 16.8675C196.661 16.0938 196.943 15.4456 197.505 14.9228C198.067 14.4001 198.795 14.1387 199.692 14.1387C200.587 14.1387 201.315 14.3896 201.877 14.8915C202.439 15.3933 202.72 16.0206 202.72 16.7734C202.72 17.5889 202.439 18.2685 201.877 18.8122C201.315 19.335 200.587 19.5962 199.692 19.5962Z" fill="#F77E23"/>
<path d="M214.33 39.0745C212.561 39.0745 210.968 38.7085 209.553 37.9766C208.157 37.2239 207.064 36.1887 206.273 34.8715C205.482 33.554 205.087 32.0589 205.087 30.3861C205.087 28.7134 205.482 27.2183 206.273 25.9008C207.064 24.5835 208.157 23.5589 209.553 22.827C210.968 22.0742 212.561 21.6978 214.33 21.6978C216.101 21.6978 217.682 22.0742 219.078 22.827C220.472 23.5589 221.566 24.5835 222.357 25.9008C223.147 27.2183 223.543 28.7134 223.543 30.3861C223.543 32.0589 223.147 33.554 222.357 34.8715C221.566 36.1887 220.472 37.2239 219.078 37.9766C217.682 38.7085 216.101 39.0745 214.33 39.0745ZM214.33 35.0596C215.58 35.0596 216.6 34.6414 217.391 33.805C218.202 32.9477 218.609 31.8081 218.609 30.3861C218.609 28.9642 218.202 27.835 217.391 26.9986C216.6 26.1413 215.58 25.7127 214.33 25.7127C213.081 25.7127 212.05 26.1413 211.239 26.9986C210.427 27.835 210.021 28.9642 210.021 30.3861C210.021 31.8081 210.427 32.9477 211.239 33.805C212.05 34.6414 213.081 35.0596 214.33 35.0596Z" fill="#F77E23"/>
<path d="M236.7 21.6978C238.78 21.6978 240.457 22.3252 241.728 23.5798C243.018 24.8343 243.663 26.6954 243.663 29.1629V38.8235H238.792V29.9157C238.792 28.5773 238.5 27.5842 237.918 26.9359C237.333 26.2667 236.491 25.9322 235.387 25.9322C234.159 25.9322 233.181 26.319 232.453 27.0927C231.724 27.8455 231.359 28.9746 231.359 30.4802V38.8235H226.488V21.9488H231.14V23.9248C231.787 23.2138 232.587 22.6702 233.544 22.2938C234.503 21.8966 235.555 21.6978 236.7 21.6978Z" fill="#F77E23"/>
<path d="M254.544 21.6978C257.145 21.6978 259.145 22.3252 260.539 23.5798C261.935 24.8134 262.631 26.6849 262.631 29.1943V38.8235H258.072V36.7221C257.157 38.2903 255.45 39.0745 252.951 39.0745C251.661 39.0745 250.536 38.8548 249.578 38.4157C248.642 37.9766 247.923 37.3702 247.424 36.5965C246.924 35.8228 246.675 34.9446 246.675 33.9617C246.675 32.3935 247.257 31.1598 248.423 30.2607C249.609 29.3615 251.43 28.9119 253.888 28.9119H257.76C257.76 27.8455 257.438 27.03 256.791 26.4655C256.146 25.8799 255.178 25.5871 253.888 25.5871C252.993 25.5871 252.108 25.7336 251.234 26.0262C250.38 26.2981 249.65 26.6745 249.047 27.1554L247.299 23.7365C248.214 23.0884 249.308 22.5864 250.577 22.231C251.869 21.8757 253.19 21.6978 254.544 21.6978ZM254.17 35.781C255.002 35.781 255.742 35.5929 256.387 35.2165C257.032 34.8192 257.49 34.2441 257.76 33.4913V31.7663H254.419C252.42 31.7663 251.421 32.4248 251.421 33.7423C251.421 34.3697 251.661 34.8715 252.14 35.2479C252.639 35.6033 253.314 35.781 254.17 35.781Z" fill="#F77E23"/>
<path d="M271.382 24.1758C271.965 23.3601 272.746 22.7434 273.724 22.3252C274.723 21.907 275.869 21.6978 277.16 21.6978V26.2145C276.619 26.1727 276.254 26.1518 276.066 26.1518C274.672 26.1518 273.579 26.5491 272.788 27.3437C271.995 28.1173 271.6 29.2883 271.6 30.8566V38.8235H266.729V21.9488H271.382V24.1758Z" fill="#F77E23"/>
<path d="M297 21.9488L289.41 39.8586C288.641 41.8032 287.683 43.1729 286.539 43.9675C285.413 44.7621 284.049 45.1594 282.447 45.1594C281.573 45.1594 280.709 45.0235 279.855 44.7516C279.002 44.4797 278.304 44.1034 277.763 43.6225L279.543 40.1409C279.918 40.4755 280.343 40.7367 280.824 40.925C281.323 41.1131 281.811 41.2074 282.29 41.2074C282.958 41.2074 283.499 41.04 283.915 40.7054C284.331 40.3917 284.706 39.8586 285.039 39.1058L285.101 38.949L277.826 21.9488H282.854L287.568 33.3972L292.316 21.9488H297Z" fill="#F77E23"/>
</g>
<defs>
<clipPath id="clip0_1202_18">
<rect width="297" height="57" fill="white"/>
</clipPath>
</defs>
</svg>
